<svg xmlns="http://www.w3.org/2000/svg" version="1.1" xmlns:xlink="http://www.w3.org/1999/xlink" xmlns:svgjs="http://svgjs.dev/svgjs" width="1500" height="1500" viewBox="0 0 1500 1500"><rect width="1500" height="1500" fill="#ffffff"></rect><g transform="matrix(0.6666666666666666,0,0,0.6666666666666666,249.2796417170141,403.552688172043)"><svg viewBox="0 0 359 248" data-background-color="#ffffff" preserveAspectRatio="xMidYMid meet" height="1036" width="1500" xmlns="http://www.w3.org/2000/svg" xmlns:xlink="http://www.w3.org/1999/xlink"><g id="tight-bounds" transform="matrix(1,0,0,1,0.2586086235919254,0.4000000000000057)"><svg viewBox="0 0 358.48278275281615 247.2" height="247.2" width="358.48278275281615"><g><svg viewBox="0 0 397.4975999999999 274.1035593549104" height="247.2" width="358.48278275281615"><g><rect width="397.4975999999999" height="5.09231269331759" x="0" y="153.93838379219298" fill="#0c0a0f" opacity="1" stroke-width="0" stroke="transparent" fill-opacity="1" class="rect-yte-0" data-fill-palette-color="primary" rx="1%" id="yte-0" data-palette-color="#0c0a0f"></rect></g><g transform="matrix(1,0,0,1,0.9887999999999693,172.36135798634194)"><svg viewBox="0 0 395.52 101.74220136856843" height="101.74220136856843" width="395.52"><g id="textblocktransform"><svg viewBox="0 0 395.52 101.74220136856843" height="101.74220136856843" width="395.52" id="textblock"><g><svg viewBox="0 0 395.52 56.46766931340495" height="56.46766931340495" width="395.52"><g transform="matrix(1,0,0,1,0,0)"><svg width="395.52" viewBox="4.1 -34.4 311.78999999999996 44.78" height="56.46766931340495" data-palette-color="#0c0a0f"><g class="wordmark-text-0" data-fill-palette-color="primary" id="text-0"><path d="M8.25-22.85L8.25-22.85 8.25 0 4.1 0 4.1-34.4 9.52-34.4 28.13-4.91Q27.83-9.72 27.83-11.84L27.83-11.84 27.83-34.4 32.03-34.4 32.03 0 26.42 0 8.01-29.3Q8.06-27.69 8.15-26.07 8.25-24.46 8.25-22.85ZM61.69-12.28L42.84-12.28Q42.84-7.74 44.72-5.27 46.6-2.81 50.22-2.81L50.22-2.81Q53.07-2.81 54.79-3.96 56.52-5.1 57.13-6.86L57.13-6.86 60.98-5.76Q58.62 0.49 50.22 0.49L50.22 0.49Q44.36 0.49 41.29-3 38.23-6.49 38.23-13.38L38.23-13.38Q38.23-19.92 41.29-23.41 44.36-26.9 50.05-26.9L50.05-26.9Q55.88-26.9 58.79-23.39 61.69-19.87 61.69-12.87L61.69-12.87 61.69-12.28ZM42.89-15.65L57.15-15.65Q56.78-19.82 55.03-21.74 53.27-23.66 49.97-23.66L49.97-23.66Q46.77-23.66 44.91-21.52 43.04-19.38 42.89-15.65L42.89-15.65ZM81.1-18.68L81.1-18.68 76.31 0 71.24 0 63.84-26.42 68.18-26.42 72.72-8.13Q72.92-7.35 73.19-6.15 73.46-4.96 73.7-3.64L73.7-3.64Q73.97-4.79 74.25-5.93 74.53-7.08 74.82-8.2L74.82-8.2 79.63-26.42 84.35-26.42 88.96-8.28Q89.25-7.13 89.53-5.96 89.81-4.79 90.08-3.64L90.08-3.64Q90.35-4.81 90.63-6.09 90.91-7.37 91.16-8.35L91.16-8.35 95.84-26.42 100.14-26.42 92.57 0 87.47 0 82.86-18.68Q82.61-19.7 82.4-20.74 82.2-21.78 81.98-22.8L81.98-22.8Q81.88-22.27 81.62-20.98 81.37-19.7 81.1-18.68ZM123.21-7.3L123.21-7.3Q123.21-3.56 120.39-1.54 117.57 0.49 112.49 0.49L112.49 0.49Q107.56 0.49 104.89-1.14 102.21-2.76 101.41-6.2L101.41-6.2 105.29-6.96Q105.85-4.83 107.61-3.85 109.37-2.86 112.49-2.86L112.49-2.86Q115.84-2.86 117.39-3.88 118.94-4.91 118.94-6.96L118.94-6.96Q118.94-8.52 117.86-9.5 116.79-10.47 114.4-11.11L114.4-11.11Q111.56-11.87 109.89-12.35 108.22-12.84 107.32-13.2 106.41-13.55 105.88-13.87L105.88-13.87Q104.26-14.79 103.36-16.14 102.46-17.48 102.46-19.43L102.46-19.43Q102.46-23.05 105.03-24.94 107.61-26.83 112.54-26.83L112.54-26.83Q116.91-26.83 119.49-25.29 122.06-23.75 122.75-20.36L122.75-20.36 118.79-19.87Q118.43-21.63 116.83-22.57 115.23-23.51 112.54-23.51L112.54-23.51Q109.56-23.51 108.15-22.61 106.73-21.7 106.73-19.87L106.73-19.87Q106.73-18.53 107.54-17.66 108.34-16.8 110.61-16.24L110.61-16.24Q113.66-15.5 116.42-14.64 119.18-13.77 120.38-12.92L120.38-12.92Q121.77-11.91 122.49-10.56 123.21-9.2 123.21-7.3Z" fill="#0c0a0f" data-fill-palette-color="primary"></path><path d="M145.86-3.81L168.3-3.81 168.3 0 141.2 0 141.2-34.4 167.3-34.4 167.3-30.59 145.86-30.59 145.86-19.56 165.83-19.56 165.83-15.8 145.86-15.8 145.86-3.81ZM190 0L182.9-10.84 175.74 0 171.01 0 180.41-13.57 171.45-26.42 176.31-26.42 182.9-16.14 189.44-26.42 194.35-26.42 185.39-13.62 194.91 0 190 0ZM221.15-13.33L221.15-13.33Q221.15-6.42 218.72-2.97 216.29 0.49 211.43 0.49L211.43 0.49Q205.33 0.49 203.23-4.1L203.23-4.1 203.11-4.1Q203.21-3.93 203.21 0.05L203.21 0.05 203.21 10.38 198.81 10.38 198.81-21.02Q198.81-23.05 198.78-24.4 198.74-25.76 198.67-26.42L198.67-26.42 202.91-26.42Q202.94-26.32 203-25.46 203.06-24.61 203.11-23.62 203.16-22.63 203.16-22.17L203.16-22.17 203.26-22.17Q204.43-24.61 206.36-25.74 208.29-26.88 211.43-26.88L211.43-26.88Q216.32-26.88 218.73-23.61 221.15-20.34 221.15-13.33ZM216.54-13.23L216.54-13.23Q216.54-18.75 215.05-21.12 213.56-23.49 210.31-23.49L210.31-23.49Q206.7-23.49 204.95-20.98 203.21-18.48 203.21-12.89L203.21-12.89Q203.21-7.69 204.87-5.22 206.53-2.76 210.26-2.76L210.26-2.76Q213.53-2.76 215.04-5.16 216.54-7.57 216.54-13.23ZM231.11-13.77L231.11-13.77 231.11 0 226.72 0 226.72-20.26Q226.72-21.66 226.68-23.19 226.64-24.73 226.57-26.42L226.57-26.42 230.72-26.42Q230.77-25.29 230.8-24.39 230.84-23.49 230.87-22.81 230.89-22.14 230.9-21.69 230.91-21.24 230.91-21.02L230.91-21.02 231.01-21.02Q231.74-23.41 232.62-24.73L232.62-24.73Q233.48-25.95 234.58-26.43 235.68-26.9 237.29-26.9L237.29-26.9Q238.19-26.9 239.07-26.66L239.07-26.66 239.07-22.63Q238.24-22.88 236.73-22.88L236.73-22.88Q233.99-22.88 232.55-20.52 231.11-18.16 231.11-13.77ZM265.48-12.28L246.64-12.28Q246.64-7.74 248.51-5.27 250.39-2.81 254.01-2.81L254.01-2.81Q256.86-2.81 258.59-3.96 260.31-5.1 260.92-6.86L260.92-6.86 264.77-5.76Q262.41 0.49 254.01 0.49L254.01 0.49Q248.15 0.49 245.08-3 242.02-6.49 242.02-13.38L242.02-13.38Q242.02-19.92 245.08-23.41 248.15-26.9 253.84-26.9L253.84-26.9Q259.67-26.9 262.58-23.39 265.48-19.87 265.48-12.87L265.48-12.87 265.48-12.28ZM246.68-15.65L260.94-15.65Q260.58-19.82 258.82-21.74 257.06-23.66 253.76-23.66L253.76-23.66Q250.57-23.66 248.7-21.52 246.83-19.38 246.68-15.65L246.68-15.65ZM290.9-7.3L290.9-7.3Q290.9-3.56 288.08-1.54 285.26 0.49 280.18 0.49L280.18 0.49Q275.25 0.49 272.57-1.14 269.9-2.76 269.09-6.2L269.09-6.2 272.98-6.96Q273.54-4.83 275.29-3.85 277.05-2.86 280.18-2.86L280.18-2.86Q283.52-2.86 285.07-3.88 286.62-4.91 286.62-6.96L286.62-6.96Q286.62-8.52 285.55-9.5 284.47-10.47 282.08-11.11L282.08-11.11Q279.25-11.87 277.58-12.35 275.9-12.84 275-13.2 274.1-13.55 273.56-13.87L273.56-13.87Q271.95-14.79 271.05-16.14 270.14-17.48 270.14-19.43L270.14-19.43Q270.14-23.05 272.72-24.94 275.29-26.83 280.23-26.83L280.23-26.83Q284.6-26.83 287.17-25.29 289.75-23.75 290.43-20.36L290.43-20.36 286.48-19.87Q286.11-21.63 284.51-22.57 282.91-23.51 280.23-23.51L280.23-23.51Q277.25-23.51 275.83-22.61 274.42-21.7 274.42-19.87L274.42-19.87Q274.42-18.53 275.22-17.66 276.03-16.8 278.3-16.24L278.3-16.24Q281.35-15.5 284.11-14.64 286.87-13.77 288.06-12.92L288.06-12.92Q289.45-11.91 290.17-10.56 290.9-9.2 290.9-7.3ZM315.89-7.3L315.89-7.3Q315.89-3.56 313.07-1.54 310.25 0.49 305.17 0.49L305.17 0.49Q300.24 0.49 297.57-1.14 294.9-2.76 294.09-6.2L294.09-6.2 297.97-6.96Q298.53-4.83 300.29-3.85 302.05-2.86 305.17-2.86L305.17-2.86Q308.52-2.86 310.07-3.88 311.62-4.91 311.62-6.96L311.62-6.96Q311.62-8.52 310.55-9.5 309.47-10.47 307.08-11.11L307.08-11.11Q304.25-11.87 302.57-12.35 300.9-12.84 300-13.2 299.1-13.55 298.56-13.87L298.56-13.87Q296.95-14.79 296.04-16.14 295.14-17.48 295.14-19.43L295.14-19.43Q295.14-23.05 297.72-24.94 300.29-26.83 305.22-26.83L305.22-26.83Q309.59-26.83 312.17-25.29 314.75-23.75 315.43-20.36L315.43-20.36 311.47-19.87Q311.11-21.63 309.51-22.57 307.91-23.51 305.22-23.51L305.22-23.51Q302.25-23.51 300.83-22.61 299.41-21.7 299.41-19.87L299.41-19.87Q299.41-18.53 300.22-17.66 301.02-16.8 303.3-16.24L303.3-16.24Q306.35-15.5 309.11-14.64 311.86-13.77 313.06-12.92L313.06-12.92Q314.45-11.91 315.17-10.56 315.89-9.2 315.89-7.3Z" fill="#7091e6" data-fill-palette-color="accent"></path></g></svg></g></svg></g><g transform="matrix(1,0,0,1,75.54432,69.79833081423634)"><svg viewBox="0 0 244.43135999999998 31.943870554332094" height="31.943870554332094" width="244.43135999999998"><g transform="matrix(1,0,0,1,0,0)"><svg width="244.43135999999998" viewBox="3.52 -44.58 387.96000000000004 50.71" height="31.943870554332094" data-palette-color="#0c0a0f"><path d="M11.91 0L3.52 0 3.52-42.97 11.28-42.97Q14.58-42.97 16.38-41.99 18.19-41.02 18.92-38.89 19.65-36.77 19.68-33.3L19.68-33.3 19.68-32.37Q19.68-28.78 19.01-26.53 18.33-24.27 16.43-23.27L16.43-23.27Q17.97-22.66 18.82-21.14 19.68-19.63 20.03-17.5 20.39-15.38 20.39-12.94L20.39-12.94 20.39-12.04Q20.34-7.84 19.54-5.18 18.75-2.51 16.92-1.26 15.09 0 11.91 0L11.91 0ZM8.57-21.14L8.57-4.08 11.67-4.08Q13.11-4.08 13.89-4.79 14.67-5.49 14.99-7.26 15.31-9.03 15.31-12.18L15.31-12.18 15.31-13.67Q15.31-17.65 14.67-19.4 14.04-21.14 11.94-21.14L11.94-21.14 8.57-21.14ZM8.57-38.84L8.57-25.02 11.43-25.02Q12.45-25.02 13.09-25.26 13.72-25.49 14.07-26.2 14.43-26.9 14.55-28.3 14.67-29.69 14.67-32.03L14.67-32.03 14.67-33.23Q14.67-35.67 14.31-36.87 13.94-38.06 13.15-38.45 12.35-38.84 11.06-38.84L11.06-38.84 8.57-38.84ZM31 0L25.97 0 25.97-36.62 31-36.62 31-32.54Q31.64-34.67 33.21-35.86 34.79-37.06 37.23-37.06L37.23-37.06Q37.28-37.06 37.29-36.41 37.3-35.77 37.3-34.94 37.3-34.11 37.3-33.46 37.3-32.81 37.3-32.81L37.3-32.81Q36.13-32.81 34.96-32.53 33.79-32.25 32.76-31.58 31.74-30.91 31-29.76L31-29.76 31 0ZM46.72 0L41.69 0 41.69-36.62 46.72-36.62 46.72 0ZM46.72-39.99L41.69-39.99 41.69-44.58 46.72-44.58 46.72-39.99ZM58.85 0L53.85 0 53.85-36.62 58.85-36.62 58.85-32.74Q59.34-34.45 60.94-35.77 62.54-37.08 64.76-37.08L64.76-37.08Q67.52-37.08 69.06-35.13 70.6-33.18 70.6-29.2L70.6-29.2 70.6 0 65.59 0 65.59-29.17Q65.59-31.13 64.71-32.01 63.84-32.89 62.47-32.89L62.47-32.89Q61.47-32.89 60.64-32.45 59.81-32.01 59.33-31.08 58.85-30.15 58.85-28.69L58.85-28.69 58.85 0ZM84.88 5.59L84.88 5.59Q82.36 5.66 80.35 5.03 78.33 4.39 76.89 3.25L76.89 3.25 78.7-0.17Q79.78 0.56 81.24 1.12 82.7 1.68 84.63 1.64L84.63 1.64Q86.34 1.59 87.28 0.35 88.22-0.88 88.22-2.95L88.22-2.95 88.22-6.45Q87.51-4.64 86.27-4.03 85.02-3.42 83.44-3.42L83.44-3.42Q80.87-3.42 79.47-4.91 78.07-6.4 77.52-8.98 76.97-11.57 76.97-14.84L76.97-14.84 76.97-25.34Q76.97-28.69 77.61-31.35 78.26-34.01 79.78-35.56 81.29-37.11 83.88-37.06L83.88-37.06Q85.44-37.04 86.57-36.28 87.71-35.52 88.22-33.94L88.22-33.94 88.22-36.62 93.23-36.62 93.23-3.42Q93.23-1.86 92.85-0.29 92.47 1.27 91.55 2.58 90.64 3.88 89.02 4.7 87.39 5.52 84.88 5.59ZM85.37-7.4L85.37-7.4Q86.34-7.4 86.98-7.98 87.61-8.57 87.92-10.17 88.22-11.77 88.22-14.77L88.22-14.77 88.22-26.07Q88.22-29.42 87.62-31.15 87.03-32.89 85.12-32.89L85.12-32.89Q83.73-32.89 83.06-32.02 82.39-31.15 82.19-29.64 82-28.13 82-26.12L82-26.12 82-14.72Q82-11.08 82.66-9.24 83.32-7.4 85.37-7.4ZM105.33 0L100.3 0 100.3-36.62 105.33-36.62 105.33 0ZM105.33-39.99L100.3-39.99 100.3-44.58 105.33-44.58 105.33-39.99ZM117.47 0L112.46 0 112.46-36.62 117.47-36.62 117.47-32.74Q117.95-34.45 119.55-35.77 121.15-37.08 123.37-37.08L123.37-37.08Q126.13-37.08 127.67-35.13 129.21-33.18 129.21-29.2L129.21-29.2 129.21 0 124.2 0 124.2-29.17Q124.2-31.13 123.32-32.01 122.45-32.89 121.08-32.89L121.08-32.89Q120.08-32.89 119.25-32.45 118.42-32.01 117.94-31.08 117.47-30.15 117.47-28.69L117.47-28.69 117.47 0ZM143.49 5.59L143.49 5.59Q140.97 5.66 138.96 5.03 136.95 4.39 135.5 3.25L135.5 3.25 137.31-0.17Q138.39 0.56 139.85 1.12 141.32 1.68 143.24 1.64L143.24 1.64Q144.95 1.59 145.89 0.35 146.83-0.88 146.83-2.95L146.83-2.95 146.83-6.45Q146.13-4.64 144.88-4.03 143.63-3.42 142.05-3.42L142.05-3.42Q139.48-3.42 138.08-4.91 136.68-6.4 136.13-8.98 135.58-11.57 135.58-14.84L135.58-14.84 135.58-25.34Q135.58-28.69 136.23-31.35 136.87-34.01 138.39-35.56 139.9-37.11 142.49-37.06L142.49-37.06Q144.05-37.04 145.19-36.28 146.32-35.52 146.83-33.94L146.83-33.94 146.83-36.62 151.84-36.62 151.84-3.42Q151.84-1.86 151.46-0.29 151.08 1.27 150.17 2.58 149.25 3.88 147.63 4.7 146 5.52 143.49 5.59ZM143.98-7.4L143.98-7.4Q144.95-7.4 145.59-7.98 146.22-8.57 146.53-10.17 146.83-11.77 146.83-14.77L146.83-14.77 146.83-26.07Q146.83-29.42 146.23-31.15 145.64-32.89 143.73-32.89L143.73-32.89Q142.34-32.89 141.67-32.02 141-31.15 140.8-29.64 140.61-28.13 140.61-26.12L140.61-26.12 140.61-14.72Q140.61-11.08 141.27-9.24 141.93-7.4 143.98-7.4ZM177.37 0L172.95 0 168.68-36.62 172.88-36.62 174.81-16.24 175.37-9.23 175.59-9.23 176.52-16.26 179.42-36.62 180.74-36.62 182.99-36.62 183.79-36.62 186.7-16.8 187.7-9.23 187.89-9.23 188.48-16.82 190.38-36.62 194.48-36.62 190.07 0 185.45 0 181.76-28.66 177.37 0ZM207.01 0.44L207.01 0.44Q204.42 0.44 202.81-0.45 201.2-1.34 200.33-2.99 199.46-4.64 199.14-6.95 198.83-9.25 198.83-12.11L198.83-12.11 198.83-25.07Q198.83-28.52 199.49-31.23 200.15-33.94 201.92-35.5 203.69-37.06 207.01-37.06L207.01-37.06Q209.5-37.06 211.08-36.17 212.67-35.28 213.55-33.65 214.43-32.03 214.76-29.85 215.09-27.66 215.09-25.07L215.09-25.07 215.09-12.11Q215.09-9.3 214.79-7.01 214.5-4.71 213.66-3.04 212.82-1.37 211.22-0.46 209.62 0.44 207.01 0.44ZM207.01-3.74L207.01-3.74Q208.32-3.74 208.97-4.61 209.62-5.49 209.84-7.07 210.06-8.64 210.06-10.72L210.06-10.72 210.06-26.07Q210.06-28.13 209.84-29.65 209.62-31.18 208.96-32.03 208.3-32.89 207.01-32.89L207.01-32.89Q205.64-32.89 204.96-32.03 204.27-31.18 204.06-29.65 203.86-28.13 203.86-26.07L203.86-26.07 203.86-10.72Q203.86-8.64 204.06-7.07 204.27-5.49 204.96-4.61 205.64-3.74 207.01-3.74ZM226.73 0L221.7 0 221.7-36.62 226.73-36.62 226.73-32.54Q227.37-34.67 228.94-35.86 230.51-37.06 232.96-37.06L232.96-37.06Q233-37.06 233.02-36.41 233.03-35.77 233.03-34.94 233.03-34.11 233.03-33.46 233.03-32.81 233.03-32.81L233.03-32.81Q231.86-32.81 230.69-32.53 229.51-32.25 228.49-31.58 227.46-30.91 226.73-29.76L226.73-29.76 226.73 0ZM242.38 0L237.37 0 237.37-43.43 242.38-43.43 242.38 0ZM255.31 0.32L255.31 0.32Q252.6 0.32 251.27-1.27 249.94-2.86 249.52-5.58 249.09-8.3 249.09-11.72L249.09-11.72 249.09-25.56Q249.09-28.83 249.69-31.43 250.28-34.03 251.81-35.55 253.34-37.06 256.07-37.06L256.07-37.06Q257.51-37.06 258.65-36.23 259.78-35.4 260.37-34.18L260.37-34.18 260.37-43.43 265.4-43.43 265.4 0 260.37 0 260.37-3.08Q259.64-1.27 258.29-0.48 256.95 0.32 255.31 0.32ZM257.05-3.76L257.05-3.76Q258.2-3.76 258.94-4.33 259.68-4.91 260.04-6.47 260.39-8.03 260.39-10.94L260.39-10.94 260.39-25.63Q260.39-29.2 259.79-31.03 259.2-32.86 257.17-32.86L257.17-32.86Q255.34-32.84 254.73-31.07 254.12-29.3 254.12-25.51L254.12-25.51 254.12-10.72Q254.12-8.59 254.33-7.03 254.53-5.47 255.17-4.61 255.8-3.76 257.05-3.76ZM294.44 0.22L291 0.22Q288.66 0.22 287.46-0.34 286.27-0.9 285.85-2.15 285.44-3.39 285.44-5.44L285.44-5.44 285.44-32.62 282.09-32.62 282.09-36.33 285.44-36.33 285.44-42.97 290.44-42.97 290.44-36.33 294.4-36.33 294.4-32.62 290.44-32.62 290.44-5.88Q290.44-4.96 290.69-4.5 290.93-4.05 291.78-3.91 292.64-3.76 294.44-3.76L294.44-3.76 294.44 0.22ZM306.8 0.44L306.8 0.44Q304.21 0.44 302.6-0.45 300.99-1.34 300.12-2.99 299.25-4.64 298.93-6.95 298.62-9.25 298.62-12.11L298.62-12.11 298.62-25.07Q298.62-28.52 299.28-31.23 299.94-33.94 301.71-35.5 303.48-37.06 306.8-37.06L306.8-37.06Q309.29-37.06 310.87-36.17 312.46-35.28 313.34-33.65 314.22-32.03 314.55-29.85 314.88-27.66 314.88-25.07L314.88-25.07 314.88-12.11Q314.88-9.3 314.58-7.01 314.29-4.71 313.45-3.04 312.61-1.37 311.01-0.46 309.41 0.44 306.8 0.44ZM306.8-3.74L306.8-3.74Q308.11-3.74 308.76-4.61 309.41-5.49 309.63-7.07 309.85-8.64 309.85-10.72L309.85-10.72 309.85-26.07Q309.85-28.13 309.63-29.65 309.41-31.18 308.75-32.03 308.09-32.89 306.8-32.89L306.8-32.89Q305.43-32.89 304.75-32.03 304.06-31.18 303.85-29.65 303.65-28.13 303.65-26.07L303.65-26.07 303.65-10.72Q303.65-8.64 303.85-7.07 304.06-5.49 304.75-4.61 305.43-3.74 306.8-3.74ZM337.41 6.13L332.5 6.13 332.5 2.34 334.23 2.34Q335.31 2.34 336.1 2.23 336.89 2.12 337.06 1.76L337.06 1.76Q337.36 1.37 337.3 0.52 337.24-0.32 337.09-1.29L337.09-1.29 331.11-36.62 335.97-36.62 338.6-17.58 339.68-7.67 340.12-7.67 341.07-17.58 343.46-36.62 348.29-36.62 342.22 0.71Q341.92 2.69 341.48 3.88 341.04 5.08 340.13 5.6 339.21 6.13 337.41 6.13L337.41 6.13ZM360.35 0.44L360.35 0.44Q357.77 0.44 356.15-0.45 354.54-1.34 353.68-2.99 352.81-4.64 352.49-6.95 352.17-9.25 352.17-12.11L352.17-12.11 352.17-25.07Q352.17-28.52 352.83-31.23 353.49-33.94 355.26-35.5 357.03-37.06 360.35-37.06L360.35-37.06Q362.84-37.06 364.43-36.17 366.02-35.28 366.9-33.65 367.77-32.03 368.1-29.85 368.43-27.66 368.43-25.07L368.43-25.07 368.43-12.11Q368.43-9.3 368.14-7.01 367.85-4.71 367.01-3.04 366.16-1.37 364.56-0.46 362.97 0.44 360.35 0.44ZM360.35-3.74L360.35-3.74Q361.67-3.74 362.32-4.61 362.97-5.49 363.18-7.07 363.4-8.64 363.4-10.72L363.4-10.72 363.4-26.07Q363.4-28.13 363.18-29.65 362.97-31.18 362.31-32.03 361.65-32.89 360.35-32.89L360.35-32.89Q358.99-32.89 358.3-32.03 357.62-31.18 357.41-29.65 357.2-28.13 357.2-26.07L357.2-26.07 357.2-10.72Q357.2-8.64 357.41-7.07 357.62-5.49 358.3-4.61 358.99-3.74 360.35-3.74ZM380.88 0.49L380.88 0.49Q379.25 0.49 377.86-0.32 376.46-1.12 375.61-2.92 374.75-4.71 374.75-7.62L374.75-7.62 374.75-36.62 379.76-36.62 379.76-8.18Q379.76-6.05 380.52-4.96 381.27-3.86 382.91-3.86L382.91-3.86Q384.72-3.86 385.58-5.11 386.45-6.37 386.45-8.3L386.45-8.3 386.45-36.62 391.48-36.62 391.48 0 386.45 0 386.45-3.74Q385.91-2.03 384.52-0.77 383.13 0.49 380.88 0.49Z" opacity="1" transform="matrix(1,0,0,1,0,0)" fill="#0c0a0f" class="slogan-text-1" data-fill-palette-color="secondary" id="text-1"></path></svg></g></svg></g></svg></g></svg></g><g transform="matrix(1,0,0,1,122.44338973212689,0)"><svg viewBox="0 0 152.61082053574614 140.6077222913616" height="140.6077222913616" width="152.61082053574614"><g><svg xmlns="http://www.w3.org/2000/svg" xmlns:xlink="http://www.w3.org/1999/xlink" version="1.1" x="0" y="0" viewBox="5 9 89 82" enable-background="new 0 0 100 100" xml:space="preserve" height="140.6077222913616" width="152.61082053574614" class="icon-icon-0" data-fill-palette-color="accent" id="icon-0"><g fill="#7091e6" data-fill-palette-color="accent"><g fill="#7091e6" data-fill-palette-color="accent"><path d="M89.5 9H29.5C26.739 9 24 11.239 24 14V32H10.5C7.739 32 5 34.238 5 37V74C5 82.815 10.435 89.401 17.828 90.375 18.546 90.773 19.622 91 20.5 91H79.331C88.404 91 94 84.168 94 74V14C94 11.239 92.262 9 89.5 9M24 74C24 77.827 22.149 80.5 19.5 80.5 16.809 80.5 15 77.888 15 74V42H24zM84 74C84 78.645 82.761 81 79.331 81H33.227C34.048 78.896 34 76.532 34 74V19H84z" fill="#7091e6" data-fill-palette-color="accent"></path><path d="M48.5 37H72.5C75.262 37 77.5 34.762 77.5 32S75.262 27 72.5 27H48.5A5 5 0 1 0 48.5 37" fill="#7091e6" data-fill-palette-color="accent"></path><path d="M48.5 55H72.5C75.262 55 77.5 52.762 77.5 50S75.262 45 72.5 45H48.5A5 5 0 1 0 48.5 55" fill="#7091e6" data-fill-palette-color="accent"></path><path d="M48.5 73H72.5C75.262 73 77.5 70.762 77.5 68S75.262 63 72.5 63H48.5A5 5 0 1 0 48.5 73" fill="#7091e6" data-fill-palette-color="accent"></path></g></g></svg></g></svg></g><g></g></svg></g><defs></defs></svg><rect width="358.48278275281615" height="247.2" fill="none" stroke="none" visibility="hidden"></rect></g></svg></g></svg>